<svg xmlns="http://www.w3.org/2000/svg" width="77.264" height="23.917" viewBox="0 0 77.264 23.917">
  <g id="Group_52" data-name="Group 52" transform="translate(-407.747 -970.805)">
    <path id="Path_74" data-name="Path 74" d="M412.346,987.363a4.6,4.6,0,0,1,0-9.2H419.7a2.759,2.759,0,1,0-2.759-2.76.92.92,0,0,1-1.84,0,4.6,4.6,0,1,1,4.6,4.6h-7.359a2.759,2.759,0,0,0,0,5.519h14.719a2.759,2.759,0,0,0,0-5.519.92.92,0,1,1,0-1.84,4.6,4.6,0,0,1,0,9.2Z" fill="#00953d" fill-rule="evenodd"/>
    <path id="Path_75" data-name="Path 75" d="M415.106,990.122a.92.92,0,0,1,1.84,0,2.759,2.759,0,1,0,5.519,0,.92.92,0,0,1,1.84,0,4.6,4.6,0,1,1-9.2,0Z" fill="#00953d" fill-rule="evenodd"/>
    <path id="Path_76" data-name="Path 76" d="M437.294,980.794a.378.378,0,0,1-.1-.272v-5.609a.344.344,0,0,1,.1-.259.382.382,0,0,1,.273-.1h3.251a.364.364,0,0,1,.25.08.3.3,0,0,1,.089.233.287.287,0,0,1-.089.223.364.364,0,0,1-.25.08h-2.9v2.171h2.724a.356.356,0,0,1,.25.08.294.294,0,0,1,.09.232.283.283,0,0,1-.09.223.356.356,0,0,1-.25.081h-2.724v2.563a.385.385,0,0,1-.094.272.339.339,0,0,1-.263.1A.356.356,0,0,1,437.294,980.794Z" fill="#1c1b1a" fill-rule="evenodd"/>
    <path id="Path_77" data-name="Path 77" d="M442.759,980.281a2.589,2.589,0,0,1-.633-1.894v-3.5a.376.376,0,0,1,.1-.273.354.354,0,0,1,.267-.1.346.346,0,0,1,.26.1.38.38,0,0,1,.1.273v3.563a1.915,1.915,0,0,0,.45,1.384,2.122,2.122,0,0,0,2.649,0,1.927,1.927,0,0,0,.446-1.384v-3.563a.367.367,0,0,1,.1-.273.36.36,0,0,1,.263-.1.353.353,0,0,1,.268.1.377.377,0,0,1,.1.273v3.5a2.58,2.58,0,0,1-.639,1.889,3.015,3.015,0,0,1-3.729.005Z" fill="#1c1b1a" fill-rule="evenodd"/>
    <path id="Path_78" data-name="Path 78" d="M453.593,974.614a.4.4,0,0,1,.089.273v5.635a.389.389,0,0,1-.093.272.343.343,0,0,1-.264.1.373.373,0,0,1-.3-.152l-3.706-4.957v4.734a.389.389,0,0,1-.094.272.329.329,0,0,1-.254.1.318.318,0,0,1-.251-.1.4.4,0,0,1-.089-.272v-5.635a.385.385,0,0,1,.094-.273.34.34,0,0,1,.264-.1.381.381,0,0,1,.3.152l3.7,4.957v-4.733a.39.39,0,0,1,.094-.273.33.33,0,0,1,.255-.1A.318.318,0,0,1,453.593,974.614Z" fill="#1c1b1a" fill-rule="evenodd"/>
    <path id="Path_79" data-name="Path 79" d="M457.308,980.227a2.524,2.524,0,0,0,0-5.046h-1.339v5.046Zm-1.97.527a.343.343,0,0,1-.1-.259v-5.582a.344.344,0,0,1,.1-.259.38.38,0,0,1,.273-.1h1.741a3.178,3.178,0,0,1,2.336.817,3.688,3.688,0,0,1,0,4.658,3.172,3.172,0,0,1-2.331.821h-1.741A.381.381,0,0,1,455.338,980.754Z" fill="#1c1b1a" fill-rule="evenodd"/>
    <path id="Path_80" data-name="Path 80" d="M462.755,978.629h2.832l-1.42-3.206-1.412,3.206Zm4.395,1.955a.285.285,0,0,1-.1.223.363.363,0,0,1-.246.09.315.315,0,0,1-.312-.215l-.635-1.446h-3.366l-.643,1.446a.317.317,0,0,1-.313.215.365.365,0,0,1-.25-.094.3.3,0,0,1-.108-.228.313.313,0,0,1,.037-.142l2.554-5.68a.378.378,0,0,1,.16-.188.453.453,0,0,1,.233-.063.439.439,0,0,1,.24.067.42.42,0,0,1,.162.184l2.554,5.68A.34.34,0,0,1,467.15,980.584Z" fill="#1c1b1a" fill-rule="evenodd"/>
    <path id="Path_81" data-name="Path 81" d="M469.1,980.535a2.563,2.563,0,0,1-1.005-1.116,4.354,4.354,0,0,1,0-3.43,2.563,2.563,0,0,1,1.005-1.116,2.96,2.96,0,0,1,1.545-.389,3.327,3.327,0,0,1,1.13.192,2.733,2.733,0,0,1,.923.55.413.413,0,0,1,.144.312.355.355,0,0,1-.071.219.21.21,0,0,1-.17.094.506.506,0,0,1-.259-.1,3.292,3.292,0,0,0-.827-.5,2.341,2.341,0,0,0-.852-.143,1.953,1.953,0,0,0-1.6.674,3.582,3.582,0,0,0,0,3.84,1.953,1.953,0,0,0,1.6.674,2.376,2.376,0,0,0,.848-.142,3.362,3.362,0,0,0,.831-.5.5.5,0,0,1,.259-.1.215.215,0,0,1,.17.089.351.351,0,0,1,.071.224.417.417,0,0,1-.144.313,2.748,2.748,0,0,1-.923.549,3.327,3.327,0,0,1-1.13.192A2.959,2.959,0,0,1,469.1,980.535Z" fill="#1c1b1a" fill-rule="evenodd"/>
    <path id="Path_82" data-name="Path 82" d="M473.2,980.835a.276.276,0,0,1-.116-.242c0-.2.11-.3.33-.3l.268-.017a.941.941,0,0,0,.679-.282,1.224,1.224,0,0,0,.223-.817v-4.287a.377.377,0,0,1,.635-.272.377.377,0,0,1,.1.272v4.3a1.792,1.792,0,0,1-.374,1.237,1.588,1.588,0,0,1-1.135.46l-.267.018A.524.524,0,0,1,473.2,980.835Z" fill="#1c1b1a" fill-rule="evenodd"/>
    <path id="Path_83" data-name="Path 83" d="M477.928,978.629h2.832l-1.421-3.206-1.411,3.206Zm4.394,1.955a.284.284,0,0,1-.1.223.363.363,0,0,1-.246.09.317.317,0,0,1-.313-.215l-.634-1.446h-3.366l-.643,1.446a.317.317,0,0,1-.313.215.365.365,0,0,1-.25-.094.3.3,0,0,1-.108-.228.313.313,0,0,1,.037-.142l2.554-5.68a.378.378,0,0,1,.16-.188.45.45,0,0,1,.233-.063.439.439,0,0,1,.24.067.42.42,0,0,1,.162.184l2.554,5.68A.338.338,0,0,1,482.322,980.584Z" fill="#1c1b1a" fill-rule="evenodd"/>
    <path id="Path_84" data-name="Path 84" d="M437.051,990.793a.649.649,0,0,1-.17-.481v-4.979a.591.591,0,0,1,.65-.65h3.153q.66,0,.66.534t-.66.544h-2.449v1.47h2.271q.66,0,.66.543t-.66.534h-2.271v1.576h2.449c.44,0,.66.182.66.544s-.22.534-.66.534h-3.153A.648.648,0,0,1,437.051,990.793Z" fill="#1c1b1a" fill-rule="evenodd"/>
    <path id="Path_85" data-name="Path 85" d="M443.428,990.651a2.648,2.648,0,0,1-1.069-1.123,4.085,4.085,0,0,1,0-3.415,2.647,2.647,0,0,1,1.069-1.118,3.51,3.51,0,0,1,3.634.249.687.687,0,0,1,.187.214.6.6,0,0,1,.053.267.624.624,0,0,1-.129.4.391.391,0,0,1-.316.165.681.681,0,0,1-.218-.032.846.846,0,0,1-.21-.111,3,3,0,0,0-.658-.334,2.032,2.032,0,0,0-.651-.1,1.563,1.563,0,0,0-1.287.529,2.464,2.464,0,0,0-.432,1.581q0,2.12,1.719,2.12a1.89,1.89,0,0,0,.624-.1,3.974,3.974,0,0,0,.685-.334,1.244,1.244,0,0,1,.223-.112.64.64,0,0,1,.2-.031.388.388,0,0,1,.316.165.624.624,0,0,1,.129.4.579.579,0,0,1-.058.272.648.648,0,0,1-.182.209,3.507,3.507,0,0,1-3.634.25Z" fill="#1c1b1a" fill-rule="evenodd"/>
    <path id="Path_86" data-name="Path 86" d="M452.187,989.413a3.056,3.056,0,0,0,0-3.184,1.668,1.668,0,0,0-2.472,0,3.079,3.079,0,0,0,.005,3.184,1.649,1.649,0,0,0,2.462,0Zm-2.859,1.233a2.68,2.68,0,0,1-1.064-1.122,4.076,4.076,0,0,1,0-3.411,2.653,2.653,0,0,1,1.064-1.118,3.566,3.566,0,0,1,3.251,0,2.641,2.641,0,0,1,1.064,1.118,4.066,4.066,0,0,1,0,3.411,2.668,2.668,0,0,1-1.064,1.122,3.526,3.526,0,0,1-3.251,0Z" fill="#1c1b1a" fill-rule="evenodd"/>
    <path id="Path_87" data-name="Path 87" d="M456.364,990.82a.668.668,0,0,1-.191-.5v-4.506H454.73q-.659,0-.659-.571t.659-.561h4.276q.658,0,.658.561t-.658.571h-1.443v4.506a.678.678,0,0,1-.187.5.778.778,0,0,1-1.012,0Z" fill="#1c1b1a" fill-rule="evenodd"/>
    <path id="Path_88" data-name="Path 88" d="M460.593,990.793a.648.648,0,0,1-.169-.481v-4.979a.59.59,0,0,1,.65-.65h3.153q.658,0,.659.534t-.659.544h-2.45v1.47h2.271q.66,0,.66.543t-.66.534h-2.271v1.576h2.45c.439,0,.659.182.659.544s-.22.534-.659.534h-3.153A.648.648,0,0,1,460.593,990.793Z" fill="#1c1b1a" fill-rule="evenodd"/>
    <path id="Path_89" data-name="Path 89" d="M471.287,990.374a.6.6,0,0,1-.2.45.641.641,0,0,1-.458.191.571.571,0,0,1-.455-.222l-1.674-2.048-1.692,2.048a.592.592,0,0,1-.455.222.635.635,0,0,1-.45-.191.6.6,0,0,1-.2-.45.62.62,0,0,1,.16-.409l1.826-2.173-1.763-2.111a.622.622,0,0,1-.169-.41.606.606,0,0,1,.2-.45.637.637,0,0,1,.45-.192.592.592,0,0,1,.463.232l1.63,1.969,1.611-1.969a.6.6,0,0,1,.464-.232.64.64,0,0,1,.45.192.6.6,0,0,1,.039.86l-1.763,2.111,1.817,2.173A.618.618,0,0,1,471.287,990.374Z" fill="#1c1b1a" fill-rule="evenodd"/>
    <path id="Path_90" data-name="Path 90" d="M474.159,990.82a.665.665,0,0,1-.191-.5v-4.506h-1.444q-.658,0-.659-.571t.659-.561H476.8q.659,0,.659.561t-.659.571h-1.443v4.506a.674.674,0,0,1-.187.5.777.777,0,0,1-1.011,0Z" fill="#1c1b1a" fill-rule="evenodd"/>
    <path id="Path_91" data-name="Path 91" d="M478.242,990.829a.69.69,0,0,1-.187-.508v-5a.676.676,0,0,1,.187-.5.783.783,0,0,1,1.016,0,.676.676,0,0,1,.187.5v5a.72.72,0,0,1-1.2.508Z" fill="#1c1b1a" fill-rule="evenodd"/>
    <path id="Path_92" data-name="Path 92" d="M480.861,990.793a.648.648,0,0,1-.169-.481v-4.988a.671.671,0,0,1,.187-.5.782.782,0,0,1,1.015,0,.671.671,0,0,1,.187.5v4.507h2.28c.434,0,.65.19.65.57s-.216.561-.65.561h-3.019A.648.648,0,0,1,480.861,990.793Z" fill="#1c1b1a" fill-rule="evenodd"/>
  </g>
</svg>
