<svg xmlns="http://www.w3.org/2000/svg" width="45.21" height="26.822" viewBox="0 0 45.21 26.822">
  <g id="Group_4" data-name="Group 4" transform="translate(-451.286 -1060.005)">
    <path id="Path_93" data-name="Path 93" d="M470.131,1083.767a2.116,2.116,0,0,1-.449,1.445,1.963,1.963,0,0,1-2.635,0,2.13,2.13,0,0,1-.444-1.445v-.27a2.13,2.13,0,0,1,.444-1.445,1.962,1.962,0,0,1,2.635,0,2.116,2.116,0,0,1,.449,1.445v.27Zm-1.769-3.33a3.1,3.1,0,0,0-2.274.8,3.961,3.961,0,0,0,0,4.8,3.66,3.66,0,0,0,4.558,0,3.965,3.965,0,0,0,0-4.8A3.119,3.119,0,0,0,468.362,1080.437Z" fill="#fff" fill-rule="evenodd"/>
    <path id="Path_94" data-name="Path 94" d="M469.971,1078.934l-.009-.027h-1.368l-.7,1.188h.933Z" fill="#fff" fill-rule="evenodd"/>
    <path id="Path_95" data-name="Path 95" d="M476.257,1083.1a.859.859,0,0,1-.64.225h-1.83v-1.674h1.83a.88.88,0,0,1,.64.216.814.814,0,0,1,.222.612.845.845,0,0,1-.222.621Zm1.528-.621a1.917,1.917,0,0,0-.515-1.427,2.1,2.1,0,0,0-1.537-.508H472.5v6.174h1.288v-2.3h1.706l1.075,2.3h1.4l-1.244-2.511A1.682,1.682,0,0,0,477.785,1082.48Z" fill="#fff" fill-rule="evenodd"/>
    <path id="Path_96" data-name="Path 96" d="M482.472,1083.245a.823.823,0,0,1-.64.243h-1.5v-1.836h1.5a.831.831,0,0,1,.64.238.948.948,0,0,1,.222.671.977.977,0,0,1-.222.684Zm-.524-2.7h-2.906v6.174h1.288v-2.124h1.529a2.179,2.179,0,0,0,1.6-.535,2.02,2.02,0,0,0,.538-1.5,1.824,1.824,0,0,0-2.052-2.016Z" fill="#fff" fill-rule="evenodd"/>
    <path id="Path_97" data-name="Path 97" d="M489.555,1083.767a2.116,2.116,0,0,1-.449,1.445,1.963,1.963,0,0,1-2.635,0,2.13,2.13,0,0,1-.444-1.445v-.27a2.13,2.13,0,0,1,.444-1.445,1.962,1.962,0,0,1,2.635,0,2.116,2.116,0,0,1,.449,1.445v.27Zm-1.769-3.33a3.1,3.1,0,0,0-2.274.8,3.961,3.961,0,0,0,0,4.8,3.66,3.66,0,0,0,4.558,0,3.965,3.965,0,0,0,0-4.8A3.117,3.117,0,0,0,487.786,1080.437Z" fill="#fff" fill-rule="evenodd"/>
    <path id="Path_98" data-name="Path 98" d="M493.209,1085.585v-5.04h-1.288v6.174H496.5v-1.134Z" fill="#fff" fill-rule="evenodd"/>
    <path id="Path_99" data-name="Path 99" d="M451.286,1080.546h1.376l.878,3.794c.024.114.052.27.084.467s.052.33.058.4h.044c.006-.066.026-.2.058-.4s.061-.355.084-.463l.9-3.794h1.553l.887,3.794c.023.1.05.255.08.458s.05.339.062.405h.044c.006-.06.024-.187.054-.382s.059-.355.089-.481l.9-3.794h1.189l-1.614,6.167h-1.394l-1-3.929a4.462,4.462,0,0,1-.1-.489c-.029-.2-.047-.322-.053-.382h-.035c-.013.066-.034.2-.067.4s-.061.36-.085.468l-.985,3.928H452.9Z" fill="#fff" fill-rule="evenodd"/>
    <path id="Path_100" data-name="Path 100" d="M461.806,1081.67h-1.881v-1.124h5.049v1.124h-1.882v5.043h-1.287Z" fill="#fff" fill-rule="evenodd"/>
    <path id="Path_101" data-name="Path 101" d="M465.671,1074.39h-7.192a7.193,7.193,0,0,1-7.193-7.192h0a7.193,7.193,0,0,1,7.193-7.193h7.192l2.055,2.055-1.453,1.453-1.453-1.453h-6.341a5.137,5.137,0,1,0,0,10.275h6.341l5.138-5.137-2.232-2.232,1.453-1.453,3.685,3.685Z" fill="#fff" fill-rule="evenodd"/>
    <path id="Path_102" data-name="Path 102" d="M469.781,1060.005h7.193a7.192,7.192,0,0,1,7.192,7.193h0a7.193,7.193,0,0,1-7.193,7.192h-7.193l-2.055-2.055,1.453-1.453,1.454,1.453h6.341a5.137,5.137,0,0,0,0-10.275h-6.341l-5.138,5.138,2.231,2.231-1.453,1.453-3.684-3.684Z" fill="#fff" fill-rule="evenodd"/>
  </g>
</svg>
