<svg xmlns="http://www.w3.org/2000/svg" width="61.169" height="36.29" viewBox="0 0 61.169 36.29">
  <g id="Group_5" data-name="Group 5" transform="translate(-97.557 -14.476)">
    <path id="Path_1" data-name="Path 1" d="M123.054,46.626a2.859,2.859,0,0,1-.608,1.955,2.655,2.655,0,0,1-3.564,0,2.878,2.878,0,0,1-.6-1.955v-.365a2.878,2.878,0,0,1,.6-1.955,2.652,2.652,0,0,1,3.564,0,2.859,2.859,0,0,1,.608,1.955v.365Zm-2.393-4.506a4.2,4.2,0,0,0-3.077,1.078,4.365,4.365,0,0,0-1.094,3.245,4.367,4.367,0,0,0,1.094,3.246,4.953,4.953,0,0,0,6.167,0,4.371,4.371,0,0,0,1.094-3.246,4.369,4.369,0,0,0-1.094-3.245A4.216,4.216,0,0,0,120.661,42.12Z" fill="#1c1b1a" fill-rule="evenodd"/>
    <path id="Path_2" data-name="Path 2" d="M122.838,40.086l-.012-.036h-1.852l-.95,1.607h1.262Z" fill="#1c1b1a" fill-rule="evenodd"/>
    <path id="Path_3" data-name="Path 3" d="M131.342,45.725a1.16,1.16,0,0,1-.865.3H128V43.764h2.476a1.193,1.193,0,0,1,.865.292,1.1,1.1,0,0,1,.3.829,1.141,1.141,0,0,1-.3.84Zm2.068-.84a2.59,2.59,0,0,0-.7-1.931,2.847,2.847,0,0,0-2.079-.688h-4.376V50.62H128V47.5h2.308l1.455,3.117h1.887l-1.683-3.4A2.277,2.277,0,0,0,133.41,44.885Z" fill="#1c1b1a" fill-rule="evenodd"/>
    <path id="Path_4" data-name="Path 4" d="M139.751,45.92a1.114,1.114,0,0,1-.865.329h-2.032V43.764h2.032a1.123,1.123,0,0,1,.865.323,1.278,1.278,0,0,1,.3.907,1.322,1.322,0,0,1-.3.926Zm-.709-3.654h-3.931V50.62h1.743V47.747h2.068a2.956,2.956,0,0,0,2.17-.725,2.735,2.735,0,0,0,.727-2.028,2.47,2.47,0,0,0-2.777-2.728Z" fill="#1c1b1a" fill-rule="evenodd"/>
    <path id="Path_5" data-name="Path 5" d="M149.334,46.626a2.864,2.864,0,0,1-.607,1.955,2.656,2.656,0,0,1-3.565,0,2.878,2.878,0,0,1-.6-1.955v-.365a2.878,2.878,0,0,1,.6-1.955,2.653,2.653,0,0,1,3.565,0,2.864,2.864,0,0,1,.607,1.955v.365Zm-2.393-4.506a4.2,4.2,0,0,0-3.077,1.078,4.369,4.369,0,0,0-1.094,3.245,4.371,4.371,0,0,0,1.094,3.246,4.953,4.953,0,0,0,6.167,0,4.372,4.372,0,0,0,1.094-3.246,4.369,4.369,0,0,0-1.094-3.245A4.214,4.214,0,0,0,146.941,42.12Z" fill="#1c1b1a" fill-rule="evenodd"/>
    <path id="Path_6" data-name="Path 6" d="M154.279,49.086V42.266h-1.743V50.62h6.191V49.086Z" fill="#1c1b1a" fill-rule="evenodd"/>
    <path id="Path_7" data-name="Path 7" d="M97.557,42.268h1.862l1.188,5.133q.048.231.114.632c.044.268.07.446.079.536h.059c.008-.09.034-.27.078-.542s.082-.48.114-.626l1.213-5.133h2.1l1.2,5.133c.031.138.068.345.108.62s.068.458.084.548h.06c.008-.081.032-.254.072-.517s.08-.481.12-.651l1.224-5.133h1.609l-2.184,8.344h-1.885L103.416,45.3a6.235,6.235,0,0,1-.132-.663c-.039-.263-.064-.436-.071-.517h-.048c-.017.09-.046.272-.091.548s-.082.486-.114.632l-1.332,5.315H99.743Z" fill="#1c1b1a" fill-rule="evenodd"/>
    <path id="Path_8" data-name="Path 8" d="M111.791,43.789h-2.545V42.268h6.832v1.521h-2.546v6.823h-1.741Z" fill="#1c1b1a" fill-rule="evenodd"/>
    <path id="Path_9" data-name="Path 9" d="M117.02,33.939h-9.731a9.732,9.732,0,0,1-9.732-9.731h0a9.732,9.732,0,0,1,9.732-9.732h9.731l2.781,2.781-1.966,1.966-1.966-1.966h-8.58a6.951,6.951,0,1,0,0,13.9h8.58l6.951-6.95L119.8,21.189l1.966-1.966,4.985,4.985Z" fill="#c5181a" fill-rule="evenodd"/>
    <path id="Path_10" data-name="Path 10" d="M122.581,14.476h9.731a9.732,9.732,0,0,1,9.732,9.732h0a9.732,9.732,0,0,1-9.732,9.731h-9.731l-2.78-2.781,1.966-1.965,1.966,1.965h8.579a6.951,6.951,0,1,0,0-13.9h-8.579l-6.951,6.951,3.019,3.018-1.966,1.967-4.985-4.985Z" fill="#184282" fill-rule="evenodd"/>
  </g>
</svg>
