<svg xmlns="http://www.w3.org/2000/svg" width="41.764" height="24.777" viewBox="0 0 41.764 24.777">
  <g id="Group_50" data-name="Group 50" transform="translate(-284.641 -970.375)">
    <path id="Path_18" data-name="Path 18" d="M302.049,992.325a1.955,1.955,0,0,1-.415,1.335,1.813,1.813,0,0,1-2.434,0,1.964,1.964,0,0,1-.41-1.335v-.249a1.965,1.965,0,0,1,.41-1.335,1.811,1.811,0,0,1,2.434,0,1.956,1.956,0,0,1,.415,1.335v.249Zm-1.634-3.076a2.864,2.864,0,0,0-2.1.736,3.659,3.659,0,0,0,0,4.431,3.38,3.38,0,0,0,4.211,0,3.663,3.663,0,0,0,0-4.431A2.88,2.88,0,0,0,300.415,989.249Z" fill="#1c1b1a" fill-rule="evenodd"/>
    <path id="Path_19" data-name="Path 19" d="M301.9,987.86l-.009-.025h-1.264l-.648,1.1h.862Z" fill="#1c1b1a" fill-rule="evenodd"/>
    <path id="Path_20" data-name="Path 20" d="M307.708,991.71a.793.793,0,0,1-.591.208h-1.691v-1.547h1.691a.815.815,0,0,1,.591.2.752.752,0,0,1,.2.565.782.782,0,0,1-.2.574Zm1.411-.574a1.77,1.77,0,0,0-.475-1.318,1.946,1.946,0,0,0-1.42-.469h-2.988v5.7h1.19v-2.128H307l.993,2.128h1.288l-1.149-2.319A1.554,1.554,0,0,0,309.119,991.136Z" fill="#1c1b1a" fill-rule="evenodd"/>
    <path id="Path_21" data-name="Path 21" d="M313.449,991.843a.76.76,0,0,1-.591.225h-1.387v-1.7h1.387a.769.769,0,0,1,.591.221.873.873,0,0,1,.2.619.9.9,0,0,1-.2.632Zm-.484-2.494h-2.684v5.7h1.19V993.09h1.412a2.015,2.015,0,0,0,1.481-.5,1.862,1.862,0,0,0,.5-1.384,1.686,1.686,0,0,0-1.9-1.862Z" fill="#1c1b1a" fill-rule="evenodd"/>
    <path id="Path_22" data-name="Path 22" d="M319.992,992.325a1.955,1.955,0,0,1-.415,1.335,1.813,1.813,0,0,1-2.434,0,1.969,1.969,0,0,1-.41-1.335v-.249a1.97,1.97,0,0,1,.41-1.335,1.811,1.811,0,0,1,2.434,0,1.956,1.956,0,0,1,.415,1.335v.249Zm-1.634-3.076a2.864,2.864,0,0,0-2.1.736,3.659,3.659,0,0,0,0,4.431,3.38,3.38,0,0,0,4.211,0,3.659,3.659,0,0,0,0-4.431A2.877,2.877,0,0,0,318.358,989.249Z" fill="#1c1b1a" fill-rule="evenodd"/>
    <path id="Path_23" data-name="Path 23" d="M323.368,994v-4.656h-1.19v5.7H326.4V994Z" fill="#1c1b1a" fill-rule="evenodd"/>
    <path id="Path_24" data-name="Path 24" d="M284.641,989.35h1.27l.812,3.5c.022.106.048.249.078.432s.047.3.053.366h.041c.005-.061.024-.185.053-.37s.056-.328.078-.428l.828-3.5h1.435l.819,3.5c.022.095.047.236.074.424s.047.313.058.374h.041c.005-.056.021-.174.048-.353s.056-.328.083-.445l.836-3.5h1.1l-1.491,5.7h-1.287l-.927-3.629a4.112,4.112,0,0,1-.09-.453c-.027-.179-.044-.3-.049-.353h-.033c-.011.061-.031.186-.061.374s-.057.332-.079.432l-.909,3.629h-1.287Z" fill="#1c1b1a" fill-rule="evenodd"/>
    <path id="Path_25" data-name="Path 25" d="M294.359,990.388h-1.738V989.35h4.664v1.038h-1.738v4.659h-1.189Z" fill="#1c1b1a" fill-rule="evenodd"/>
    <path id="Path_26" data-name="Path 26" d="M297.929,983.663h-6.644a6.645,6.645,0,0,1-6.644-6.644h0a6.644,6.644,0,0,1,6.644-6.644h6.644l1.9,1.9-1.343,1.342-1.342-1.342h-5.858a4.745,4.745,0,1,0,0,9.491h5.858l4.746-4.745-2.061-2.062,1.342-1.342,3.4,3.4Z" fill="#c5181a" fill-rule="evenodd"/>
    <path id="Path_27" data-name="Path 27" d="M301.726,970.375h6.644a6.643,6.643,0,0,1,6.644,6.644h0a6.644,6.644,0,0,1-6.644,6.644h-6.644l-1.9-1.9,1.342-1.342,1.342,1.342h5.858a4.745,4.745,0,1,0,0-9.491h-5.858l-4.746,4.746,2.062,2.061-1.343,1.342-3.4-3.4Z" fill="#184282" fill-rule="evenodd"/>
  </g>
</svg>
